<svg width="28" height="35" viewBox="0 0 28 35" fill="none" xmlns="http://www.w3.org/2000/svg">
<path d="M0.666903 35V0.0909081H14.6442C17.2124 0.0909081 19.3544 0.47159 21.0703 1.23295C22.7862 1.99432 24.076 3.05114 24.9396 4.40341C25.8033 5.74432 26.2351 7.28977 26.2351 9.03977C26.2351 10.4034 25.9624 11.6023 25.4169 12.6364C24.8715 13.6591 24.1215 14.5 23.1669 15.1591C22.2237 15.8068 21.1442 16.267 19.9283 16.5398V16.8807C21.2578 16.9375 22.5021 17.3125 23.6612 18.0057C24.8317 18.6989 25.7805 19.6705 26.5078 20.9205C27.2351 22.1591 27.5987 23.6364 27.5987 25.3523C27.5987 27.2045 27.1385 28.858 26.218 30.3125C25.3089 31.7557 23.9624 32.8977 22.1783 33.7386C20.3942 34.5795 18.1953 35 15.5817 35H0.666903ZM8.04759 28.9659H14.0646C16.1214 28.9659 17.6214 28.5739 18.5646 27.7898C19.5078 26.9943 19.9794 25.9375 19.9794 24.6193C19.9794 23.6534 19.7464 22.8011 19.2805 22.0625C18.8146 21.3239 18.1499 20.7443 17.2862 20.3239C16.4339 19.9034 15.4169 19.6932 14.2351 19.6932H8.04759V28.9659ZM8.04759 14.6989H13.5192C14.5305 14.6989 15.4283 14.5227 16.2124 14.1705C17.0078 13.8068 17.6328 13.2955 18.0874 12.6364C18.5533 11.9773 18.7862 11.1875 18.7862 10.267C18.7862 9.00568 18.3374 7.98864 17.4396 7.21591C16.5533 6.44318 15.2919 6.05682 13.6555 6.05682H8.04759V14.6989Z" fill="#34E717"/>
</svg>
